<svg width="74" height="72" viewBox="0 0 74 72" fill="none" xmlns="http://www.w3.org/2000/svg">
<path d="M60.4276 47.7882H51.3051C50.4542 47.7882 49.7631 47.095 49.7631 46.2376V45.1553C49.7631 37.8979 43.8888 31.9944 36.6675 31.9944C29.4466 31.9944 23.5728 37.8979 23.5728 45.1553V46.2376C23.5728 47.095 22.8817 47.7882 22.0304 47.7882H12.9078C5.78999 47.7882 0 53.6075 0 60.7618V68.8438C0 70.3009 1.1713 71.4767 2.61809 71.4767H26.1904C27.6391 71.4767 28.8104 70.3009 28.8104 68.8438V63.5354C31.9846 63.2496 34.7606 61.6379 36.6675 59.2906C38.5748 61.6379 41.3508 63.2496 44.5251 63.5354V68.8438C44.5251 70.3009 45.6964 71.4767 47.145 71.4767H70.7178C72.1641 71.4767 73.3354 70.3009 73.3354 68.8438V60.7618C73.3354 53.6075 67.5454 47.7882 60.4276 47.7882ZM68.0978 66.2107H49.7631V62.5467C49.7631 60.2134 47.875 58.316 45.5539 58.316C42.0986 58.316 39.2874 55.4909 39.2874 52.0191V37.7104C42.3347 38.7974 44.5251 41.7257 44.5251 45.1553V46.2376C44.5251 49.9952 47.5667 53.0545 51.3051 53.0545H60.4276C64.6579 53.0545 68.0978 56.5123 68.0978 60.7618V66.2107ZM27.7815 58.316C25.4604 58.316 23.5728 60.2134 23.5728 62.5467V66.2107H5.2376V60.7618C5.2376 56.5123 8.67749 53.0545 12.9078 53.0545H22.0304C25.7687 53.0545 28.8104 49.9952 28.8104 46.2376V45.1553C28.8104 41.7257 31.0007 38.7974 34.048 37.7104V52.0191C34.048 55.4909 31.2368 58.316 27.7815 58.316ZM61.5498 45.1553C68.0486 45.1553 73.3354 39.8421 73.3354 33.3109C73.3354 26.7797 68.0486 21.4668 61.5498 21.4668C55.0514 21.4668 49.7645 26.7797 49.7645 33.3109C49.7645 39.8421 55.0514 45.1553 61.5498 45.1553ZM11.7857 45.1553C18.2845 45.1553 23.5714 39.8421 23.5714 33.3109C23.5714 26.7797 18.2845 21.4668 11.7857 21.4668C5.28727 21.4668 0.000457541 26.7797 0.000457541 33.3109C0.000457541 39.8421 5.28727 45.1553 11.7857 45.1553ZM61.5498 26.7329C65.1616 26.7329 68.0974 29.6846 68.0974 33.3109C68.0974 36.942 65.1616 39.889 61.5498 39.889C57.9384 39.889 55.0022 36.942 55.0022 33.3109C55.0022 29.6846 57.9384 26.7329 61.5498 26.7329ZM11.7857 26.7329C15.3975 26.7329 18.3333 29.6846 18.3333 33.3109C18.3333 36.942 15.3975 39.889 11.7857 39.889C8.17431 39.889 5.23807 36.942 5.23807 33.3109C5.23807 29.6846 8.17431 26.7329 11.7857 26.7329ZM35.6873 29.1599C36.0115 29.2958 36.3531 29.3614 36.6965 29.3614C37.0676 29.3614 37.4387 29.2864 37.784 29.1224C41.2824 27.52 47.6131 23.8141 50.6997 17.0346C52.8821 12.2463 52.7219 7.39698 51.4358 5.08248C50.6997 3.76593 49.7116 2.85706 49.5223 2.68839C48.5112 1.79351 47.5002 1.29229 46.8227 1.02523C45.7409 0.608245 44.5209 0.402068 43.4414 0.411438C40.8097 0.411438 38.3734 1.48902 36.6965 3.32094C35.0098 1.47965 32.6654 0.392697 29.9208 0.411438C28.4955 0.411438 27.1523 0.711137 25.9224 1.30616C25.5654 1.47951 24.8509 1.86372 24.0933 2.49623C23.9626 2.60399 22.7992 3.59724 21.9676 5.06372C20.9153 6.91438 20.1361 11.8621 22.5354 17.2407C25.5986 24.1046 32.0914 27.6559 35.6873 29.1599ZM26.516 7.67353C26.8206 7.13942 27.297 6.67082 27.4395 6.54432C27.789 6.25384 28.109 6.08983 28.1947 6.04766C28.8314 5.74312 29.4832 5.67293 29.9306 5.67293H29.9479C31.383 5.67293 32.7085 6.41779 33.3274 7.57036L34.3909 9.557C34.8459 10.405 35.7323 10.939 36.6965 10.939H36.6984C37.6612 10.939 38.5472 10.4049 39.0021 9.5522L40.0643 7.57036C40.6808 6.41779 42.0068 5.67293 43.4648 5.67293C44.0467 5.64482 44.4721 5.7573 44.9271 5.93533C45.1084 6.00561 45.5811 6.21644 46.0478 6.62874C46.186 6.75524 46.602 7.18145 46.8597 7.64997C47.1839 8.26842 47.5761 11.2437 45.9362 14.8466C43.8242 19.4803 39.5625 22.3382 36.6478 23.8327C33.6882 22.4319 29.3759 19.7051 27.3144 15.0855C25.7176 11.506 26.1843 8.34352 26.516 7.67353Z" fill="black"/>
</svg>
