<svg width="21" height="17" viewBox="0 0 21 17" fill="none" xmlns="http://www.w3.org/2000/svg">
<path d="M8.90002 5.5C7.80002 5.5 6.90002 6.42 6.90002 7.55C6.90002 8.12 7.12002 8.62 7.49002 9L10.9 12.5L14.32 9C14.68 8.63 14.9 8.11 14.9 7.55C14.9 6.42 14 5.5 12.9 5.5C12.36 5.5 11.85 5.73 11.49 6.1L10.9 6.7L10.32 6.11C10.136 5.91876 9.91553 5.76628 9.67166 5.66152C9.42779 5.55676 9.16543 5.50184 8.90002 5.5ZM18.9 0.5C20 0.5 20.9 1.4 20.9 2.5V14.5C20.9 15.6 20 16.5 18.9 16.5H2.90002C1.80002 16.5 0.900024 15.6 0.900024 14.5V2.5C0.900024 1.4 1.80002 0.5 2.90002 0.5H18.9ZM15.6 4.56L18.9 2.5H2.90002L6.20002 4.56C5.79002 4.95 5.45002 5.42 5.23002 5.95L2.90002 4.5V14.5H18.9V4.5L16.57 5.95C16.35 5.42 16.01 4.95 15.6 4.56Z" fill="#F7F5FB"/>
</svg>
