<svg width="74" height="80" viewBox="0 0 74 80" fill="none" xmlns="http://www.w3.org/2000/svg">
<path d="M73.5657 49.9303L67.0766 35.7342C66.6118 34.7222 65.6045 34.0708 64.4937 34.0708H56.7865V27.3102L66.5748 22.414C67.3011 22.0533 67.8399 21.3927 68.0469 20.6056C68.2578 19.8185 68.1191 18.9799 67.666 18.3005L56.6558 1.7851C55.9122 0.665329 54.6645 0 53.3236 0H46.5183C44.484 0 42.8109 1.49921 42.5415 3.56539C42.1765 6.39058 39.7538 8.51759 36.9118 8.51759C34.0674 8.51759 31.6465 6.39069 31.2797 3.56081C31.0121 1.49932 29.339 0 27.3028 0H20.4999C19.1566 0 17.9108 0.665329 17.1673 1.7851L6.15516 18.3005C5.70397 18.9799 5.56528 19.8185 5.77424 20.6056C5.9832 21.3927 6.52014 22.0533 7.24822 22.414L17.0366 27.3102V34.0708H9.32939C8.21665 34.0708 7.20933 34.7222 6.74643 35.7342L0.257392 49.9303C-0.1446 50.8065 -0.0724504 51.8279 0.450889 52.6431C0.97376 53.4536 1.87379 53.9455 2.84036 53.9455H5.67867V76.6594C5.67867 78.229 6.94977 79.5035 8.51744 79.5035H65.3042C66.8719 79.5035 68.1425 78.229 68.1425 76.6594V53.9455H70.9827C71.9493 53.9455 72.8493 53.4536 73.3703 52.6431C73.8936 51.8279 73.9658 50.8065 73.5657 49.9303ZM62.4654 73.825H11.3576V53.9455H62.4654V73.825ZM48.2683 65.3071H53.9472C55.5149 65.3071 56.7855 64.033 56.7855 62.4681C56.7855 60.8986 55.5149 59.624 53.9472 59.624H48.2683C46.7006 59.624 45.43 60.8986 45.43 62.4681C45.43 64.033 46.7006 65.3071 48.2683 65.3071ZM66.5631 48.2672H7.25993L11.1548 39.7494H62.6688L66.5631 48.2672ZM12.6657 18.7736L21.3957 5.67832H25.9151C27.1974 10.6212 31.6995 14.1961 36.9118 14.1961C42.1241 14.1961 46.6256 10.6212 47.9061 5.67832H52.4273L61.1578 18.7736L56.7865 20.9616V19.8747C56.7865 18.3098 55.5158 17.0354 53.9463 17.0354C52.3786 17.0354 51.108 18.3098 51.108 19.8747V34.0708H22.7155V19.8747C22.7155 18.3098 21.4426 17.0354 19.8749 17.0354C18.3072 17.0354 17.0366 18.3098 17.0366 19.8747V20.9616L12.6657 18.7736Z" fill="black"/>
</svg>
