<svg width="74" height="67" viewBox="0 0 74 67" fill="none" xmlns="http://www.w3.org/2000/svg">
<path d="M72.0489 47.0763C70.3074 44.579 67.1116 43.3936 64.0938 44.1105L47.4885 48.0696C46.5065 48.3038 45.4541 48.3271 44.4585 48.135L36.4449 46.6077C35.5707 46.4391 34.934 45.741 34.934 44.9492C34.934 44.0121 35.789 43.2485 36.8413 43.2485H39.1783C42.8951 43.2485 45.917 40.3107 45.917 36.7031C45.917 33.0908 42.8951 30.1532 39.1783 30.1532H31.7054C30.0163 30.1532 28.3493 30.4108 26.7507 30.9168L15.5315 34.487C15.1604 33.4891 14.2215 32.7722 13.0952 32.7722H2.61764C1.17131 32.7722 0 33.9436 0 35.3913V64.2007C0 65.6484 1.17131 66.8199 2.61764 66.8199H13.0952C14.4403 66.8199 15.5081 65.7937 15.6561 64.4912L30.5964 66.0747C31.9415 66.2106 33.2805 66.2857 34.6177 66.2857C38.2 66.2857 41.7491 65.7749 45.2124 64.7582L68.035 58.0584C70.3308 57.3884 72.1623 55.669 72.9353 53.467C73.6967 51.2977 73.3743 48.9691 72.0489 47.0763ZM10.4752 61.5817H5.23762V38.0103H10.4752V61.5817ZM67.9924 51.7333C67.7736 52.3565 67.2522 52.8296 66.5611 53.0357L43.7384 59.7309C39.6407 60.9304 35.4044 61.3146 31.1488 60.8601L15.7147 59.2251V39.9265L28.3376 35.9113C29.4251 35.5646 30.5575 35.3913 31.7054 35.3913H39.1783C40.0057 35.3913 40.6794 35.9769 40.6794 36.7031C40.6794 37.4246 40.0057 38.0103 39.1783 38.0103H36.8413C32.902 38.0103 29.6963 41.1213 29.6963 44.9492C29.6963 48.2522 32.121 51.1148 35.4629 51.7567L43.477 53.2842C45.1946 53.6121 47.0026 53.57 48.7048 53.1671L65.3101 49.2079C66.2509 48.9831 67.2348 49.3251 67.7539 50.0748C68.2304 50.7541 68.1072 51.4054 67.9924 51.7333ZM58.2214 0.186523C50.0841 0.186523 43.4587 6.80674 43.4587 14.945C43.4587 23.0832 50.0841 29.7034 58.2214 29.7034C66.3587 29.7034 72.9836 23.0832 72.9836 14.945C72.9836 6.80674 66.3587 0.186523 58.2214 0.186523ZM58.2214 24.7979C52.7912 24.7979 48.3726 20.3751 48.3726 14.945C48.3726 9.5148 52.7912 5.10143 58.2214 5.10143C63.6516 5.10143 68.0697 9.5148 68.0697 14.945C68.0697 20.3751 63.6516 24.7979 58.2214 24.7979ZM56.4415 7.89381V7.76249C56.4415 7.16278 56.9269 6.6756 57.5256 6.6756H59.5567C60.1554 6.6756 60.6413 7.16278 60.6413 7.76249V7.9828C61.8684 8.45132 62.7482 9.66014 62.7482 11.0657C62.7482 11.6654 62.2624 12.1526 61.6636 12.1526H59.633C59.4095 12.1526 59.2006 12.0823 59.0291 11.9698H57.8944V12.5509L59.6663 12.846C61.4533 13.1412 62.7482 14.6684 62.7482 16.4816V18.0231C62.7482 19.4708 61.9012 20.75 60.6413 21.3451V22.132C60.6413 22.7271 60.1554 23.2143 59.5567 23.2143H57.5256C56.9269 23.2143 56.4415 22.7271 56.4415 22.132V21.6541C54.8855 21.3918 53.6978 20.0331 53.6978 18.4026C53.6978 17.8029 54.1832 17.3157 54.7824 17.3157H56.8097C57.0351 17.3157 57.2436 17.386 57.4169 17.5031H58.5484V16.9174L56.7765 16.6269C54.9928 16.3317 53.6978 14.809 53.6978 12.9958V11.4498C53.6978 9.7444 54.8649 8.3061 56.4415 7.89381Z" fill="black"/>
</svg>
