<svg width="74" height="50" viewBox="0 0 74 50" fill="none" xmlns="http://www.w3.org/2000/svg">
<path d="M68.416 34.0198H52.6931C53.1714 33.0124 53.394 31.888 53.2339 30.7616C53.2105 30.5976 53.1714 30.4375 53.1187 30.2814L48.6814 17.2428C48.6697 17.2115 48.6443 17.192 48.6326 17.1608C48.6111 17.0964 48.6189 17.0319 48.5936 16.9675C48.0274 15.6303 46.4911 15.0036 45.1441 15.5698C42.5867 16.6493 39.9122 17.4536 37.1909 17.9612C34.3681 18.4863 31.4769 18.6932 28.6111 18.5839C28.5154 18.5839 28.4237 18.582 28.33 18.5878C27.7424 18.6132 27.0923 18.211 26.9732 17.6566C26.858 17.1003 27.2602 16.3662 28.0176 16.2042C28.1953 16.1671 28.3651 16.1105 28.5291 16.0383L51.5492 5.86744C52.3066 5.59804 53.0855 5.4692 53.8762 5.51605C55.2778 5.58242 56.3671 6.12708 56.945 6.51166C59.0475 8.04607 61.3667 9.2369 63.8401 10.051C65.3296 10.5449 66.862 10.8923 68.416 11.0934V34.0198ZM34.2724 43.2379C32.492 44.7157 29.9679 44.8992 27.9942 43.7026L21.347 39.6655C18.0928 37.6938 14.3641 36.6513 10.5671 36.6513H5.26307V12.9695H10.7584C14.2314 12.9695 17.716 12.1632 20.8375 10.6386L21.6262 10.252C22.1806 9.98067 22.8034 9.87721 23.4183 9.96115L27.8986 10.5624L26.616 11.1286C23.2524 12.0109 21.1167 15.3589 21.8234 18.7381C22.4715 21.8148 25.3432 23.968 28.5291 23.847C31.7541 23.9641 34.983 23.724 38.1553 23.1344C40.3202 22.7303 42.4423 22.1037 44.5291 21.3755L48.0235 31.6381C48.004 31.7552 47.9435 31.8665 47.8498 31.9427L34.2724 43.2379ZM71.1158 6.03338C69.1968 5.98067 67.3032 5.6527 65.4838 5.05338C63.5355 4.41112 61.7063 3.47212 59.9611 2.1993C58.208 1.02604 56.1895 0.354495 54.1202 0.258838C52.6482 0.194417 51.188 0.409156 49.6028 0.979191L36.6443 6.70102C36.3241 6.49214 35.9688 6.33401 35.5647 6.27935L24.1172 4.74494C22.4852 4.52629 20.8122 4.79374 19.3129 5.52386L18.5242 5.91039C16.1191 7.0856 13.4349 7.70639 10.7584 7.70639H2.63153C1.17716 7.70639 0 8.8855 0 10.3379V39.2828C0 40.7372 1.17716 41.9144 2.63153 41.9144H10.5671C13.4036 41.9144 16.1855 42.6933 18.6179 44.1652L25.2651 48.2004C26.9771 49.2409 28.8942 49.7524 30.8053 49.7524C33.2475 49.7524 35.6721 48.9168 37.638 47.2829L47.2778 39.2653C47.309 39.2653 47.3344 39.2828 47.3657 39.2828H71.0475C72.5019 39.2828 73.679 38.1057 73.679 36.6513V8.66296C73.679 7.23592 72.5429 6.07047 71.1158 6.03338Z" fill="black"/>
</svg>
