<svg width="217" height="76" viewBox="0 0 217 76" fill="none" xmlns="http://www.w3.org/2000/svg">
<path d="M69.6343 26.5792C69.3361 26.5267 69.2591 26.4056 69.2415 26.2568C68.9268 23.6688 67.272 21.9741 64.9228 20.8916C62.6133 19.8269 59.9451 19.3756 57.1811 19.0675C52.6511 18.5631 47.9727 18.5393 43.402 18.1792C42.3369 18.3916 41.4154 18.25 40.6094 17.8241H40.6072C40.2392 18.0393 39.925 17.9286 39.6016 17.8921C38.3197 17.7478 37.0477 17.5752 35.8473 17.255C33.9647 16.7522 31.9996 16.3733 30.4421 15.3666C30.3535 15.2223 30.2649 15.0779 30.1758 14.9341C29.6928 15.1443 29.4733 14.9087 29.2615 14.6614C28.9308 14.3915 28.6002 14.121 28.2695 13.8506C27.6148 13.9031 27.3783 13.4927 27.0977 13.1315C26.9816 12.9363 26.8655 12.7416 26.7495 12.5463C26.2186 12.6 25.9583 12.4324 26.1179 11.9202C25.6035 11.1625 24.9879 10.4633 24.7398 9.55015C24.4207 9.73157 24.1016 9.91299 23.7825 10.0944C23.837 10.194 23.892 10.293 23.9464 10.3925C24.1098 10.6829 23.9938 10.9423 23.6422 11.1752C23.7055 11.7333 23.7687 12.2914 23.832 12.8494C24.254 12.9169 24.0361 13.0884 23.8122 13.261C23.837 13.3113 23.8617 13.3616 23.8865 13.4114C24.1742 13.9966 24.7431 14.5137 23.9971 15.3467C24.5692 16.6753 25.7042 17.6554 26.3137 18.9607C26.8523 18.8496 26.9662 19.1925 27.1247 19.4873C27.1824 19.5852 27.2402 19.6831 27.2985 19.7804C27.776 20.1682 28.2541 20.5553 28.7317 20.9425C28.8197 21.088 28.9072 21.234 28.9946 21.3795C29.9183 21.4066 30.1681 22.2158 30.9031 22.4619C31.0021 22.885 31.7135 22.6931 31.8142 23.1146C32.7769 22.8524 33.2275 23.3696 33.7331 23.8037C33.8563 23.8635 33.9796 23.9232 34.1028 23.983C34.4917 23.9276 34.8405 23.9431 35.0248 24.2429C35.0843 24.3381 35.1431 24.4337 35.2025 24.5289C35.8666 24.228 36.2302 24.6224 36.6769 24.7816C37.2667 24.9913 37.8493 25.1948 38.4897 25.3287C39.9751 25.6384 41.351 26.1639 42.9173 26.3198C43.1225 26.3403 43.3316 26.4205 43.2716 26.639C43.1946 26.9205 42.9454 26.8392 42.7545 26.8387C40.3729 26.8387 38.2405 26.2695 36.0679 25.7927C35.9546 25.7678 35.8886 25.6506 35.8 25.5759C35.5849 25.504 35.3692 25.4315 35.1541 25.3596C34.0907 25.5366 33.3815 25.0687 32.6174 24.7026C32.6124 24.6998 32.6465 24.6467 32.6619 24.6174C32.5398 24.3425 32.163 24.3895 31.9291 24.2556C31.6023 24.426 31.3036 24.4066 31.0445 24.2927C29.7192 23.7114 28.4258 23.0864 27.2606 22.3148C27.0377 22.1671 26.4271 22.296 26.6246 21.7617C26.5382 21.6162 26.4518 21.4713 26.3649 21.3264C25.7966 21.4519 25.3147 21.6228 25.4263 22.2639C25.4418 22.3524 25.2123 22.52 25.0963 22.6505C25.2233 23.1704 25.0632 23.7949 25.4616 24.2164C25.6486 24.5504 25.8137 24.8873 25.3378 25.2955C25.3933 25.3939 25.4489 25.4924 25.5045 25.5908C25.9171 25.6993 26.108 25.8862 25.664 26.301C25.7762 26.4979 25.8879 26.6954 26.0002 26.8929C26.8342 27.4515 27.0124 28.4299 27.5499 29.1777C27.6633 29.5046 27.7766 29.8315 27.8894 30.1584C28.0231 30.1462 28.2134 30.0793 28.2811 30.1313C28.9721 30.6579 29.6427 31.2038 30.3188 31.7442C30.3766 31.8421 30.4344 31.9394 30.4921 32.0373C30.9147 32.2409 31.4687 32.2984 31.6695 32.7497C31.7701 32.9798 31.9754 33.1148 32.2174 33.2177C32.4721 33.0821 32.6564 33.1081 32.7676 33.3017C32.7978 33.3487 32.8286 33.3963 32.8594 33.4428C33.1164 33.3045 33.3012 33.3294 33.4085 33.5296C33.7215 33.6552 34.1226 33.6839 34.2354 34.0329C34.7415 33.7774 34.9874 33.9682 35.1536 34.2968C35.3615 34.3819 35.6922 34.2769 35.7995 34.5191C36.3832 34.2973 36.8535 34.3438 37.1869 34.7149C37.3184 34.981 37.6925 34.9362 37.9258 35.0722C39.0729 34.8394 39.9977 35.0833 40.797 35.5944C40.8906 35.6071 40.9846 35.6198 41.0782 35.6331C41.4523 35.4317 41.7306 35.4688 41.9144 35.7387C42.0717 35.716 42.2291 35.6934 42.3864 35.6707C42.5564 35.627 42.744 35.5335 42.8937 35.5462C44.9204 35.7166 46.8872 36.0485 48.7511 36.5474C49.5527 36.762 50.5463 36.8892 50.9935 37.627C51.0249 37.6735 51.0552 37.7211 51.0843 37.7692C52.4146 37.7415 52.9389 38.5756 53.5176 39.3511C53.6876 39.7808 53.8576 40.21 54.0276 40.6393C54.6476 40.8063 54.3682 41.1265 53.9957 41.4623C54.1333 41.7106 54.2708 41.9584 54.4078 42.2068C54.9068 42.511 54.5305 42.8257 54.1833 43.1399C54.3709 43.3937 54.3044 43.688 54.18 44.0121C53.5611 45.6255 52.6721 47.0874 51.2802 48.4823C49.0746 50.6914 46.3783 51.8906 43.5758 52.7175C41.8874 53.2164 40.1055 53.2562 38.4121 53.2031C38.1613 53.1959 37.7547 53.28 37.8218 52.942C37.8774 52.6622 38.2119 52.7219 38.4512 52.6821C39.9779 52.4288 41.5337 52.187 43.0075 51.572C45.064 50.7141 47.0825 49.7434 48.8237 48.2495C50.0044 47.2356 50.9418 46.1482 51.3445 44.844C52.2512 41.9048 49.7651 39.616 47.3086 38.8533C44.3516 37.9346 41.0303 37.835 37.9208 37.257C34.9577 36.7067 32.1899 35.903 29.6224 34.7249C27.6946 33.8399 26.0568 32.6341 24.863 31.0921C23.4997 29.3321 22.6508 27.2784 22.6129 24.8707C22.5892 23.3419 22.7427 21.7926 23.1179 20.2428C23.3149 19.4276 23.4453 18.7749 23.0139 18.1189C21.1412 15.2726 21.0824 11.8682 21.7409 8.2852C22.2206 5.67508 23.2505 3.10313 24.6776 0.582613C24.8107 0.348096 24.88 0.00793335 25.2178 0.000189836C25.686 -0.00976611 25.4495 0.37409 25.4275 0.631286C25.2575 2.63575 25.0489 4.69386 25.6717 6.46602C26.2389 8.07889 27.0438 9.59606 28.4516 10.7797C30.0157 12.0945 31.8422 13.0259 33.8926 13.6902C38.2476 15.1011 43.0571 15.5281 47.8654 15.9231C49.2039 16.0326 50.4929 16.2682 51.8457 16.3224C55.4773 16.4673 59.028 16.8125 62.3283 17.7378C65.8086 18.7135 68.8141 20.1886 69.6899 23.603C69.9232 24.5123 70.0849 25.4957 69.6343 26.5792Z" fill="#F7F5FB"/>
<path d="M3.21949 72.3379C5.13016 70.7471 7.251 69.4683 9.55338 68.371C12.7239 66.861 15.9522 65.939 19.2228 65.1768C23.2373 64.2404 27.2077 64.0025 31.1699 63.6308C33.7325 63.3902 36.3084 63.2348 38.8325 63.2309C41.0204 63.2276 43.2469 62.9721 45.4486 62.8598C47.4814 62.7558 49.5835 62.336 51.6576 61.9676C54.7109 61.4262 57.7302 60.4411 60.6663 59.2054C63.7164 57.9217 66.7312 56.4941 69.5584 54.6876C69.8115 54.5261 70.1476 54.1981 70.4023 54.4531C70.6312 54.6821 70.2918 55.0062 70.1201 55.2264C68.9857 56.6833 67.6984 58.0743 66.1546 59.2032C63.6465 61.0373 60.9078 62.5053 57.9788 63.492C55.7826 64.2315 53.5793 64.6143 51.3462 64.9649C48.3528 65.4351 45.3952 65.7039 42.4414 65.9528C39.4723 66.2028 36.568 66.07 33.5835 66.3743C31.0379 66.6342 28.5688 66.4976 26.0007 66.8461C24.2028 67.09 22.4176 67.1663 20.6054 67.5363C18.9098 67.8826 17.2137 68.0198 15.5187 68.5513C13.3076 69.2449 11.0889 69.8948 8.92841 70.8412C6.29428 71.9949 3.68657 73.1852 1.52942 75.1521C1.14707 75.5005 0.747106 75.7826 0 76C0.933607 74.511 2.0086 73.3462 3.21949 72.3379Z" fill="#F7F5FB"/>
<path d="M63.1998 55.5256C62.4626 55.915 61.6412 56.373 60.7747 56.3951C60.2966 56.6103 59.8185 56.8249 59.3404 57.04C58.9988 57.6396 58.6907 57.4632 58.3865 57.1982C58.261 57.2707 58.1356 57.3426 58.0096 57.415C57.4479 57.9648 56.7943 58.133 56.0962 58.1197C55.8382 58.2657 55.5802 58.4117 55.3221 58.5578C54.948 58.7762 54.6763 58.7248 54.4799 58.4715C54.3544 58.5445 54.229 58.6169 54.1035 58.6888C53.7151 59.3415 53.2448 59.2259 52.7689 59.0567C52.5109 59.2027 52.2528 59.3487 51.9948 59.4947C50.8676 59.8653 49.7331 60.0899 48.6048 60.2198C48.2202 60.2641 47.7322 60.503 47.4638 60.1507C47.4 60.185 47.3361 60.2187 47.2723 60.2525C45.0123 60.9018 42.8354 60.81 40.654 60.914C39.2049 60.9826 37.7008 60.9737 36.4938 60.357C36.3375 60.3791 36.1807 60.4007 36.0239 60.4223C35.6476 60.6236 35.3698 60.5866 35.1893 60.3122L35.1871 60.3117C34.8835 60.3802 34.6706 60.3056 34.5418 60.0965C34.2997 59.9704 34.0197 59.9333 33.7039 59.9853C32.7219 60.2741 32.0458 59.9273 31.3894 59.5373C31.3575 59.4925 31.3267 59.4466 31.2976 59.3996C30.0663 59.6452 29.1778 59.2342 28.3433 58.7193C28.3119 58.6739 28.2811 58.628 28.2514 58.581C27.8542 58.8089 27.5719 58.6606 27.3024 58.5235C25.5892 57.6545 23.7225 56.9786 22.126 55.9626L21.9483 55.6722C21.0653 55.5029 20.5729 54.9034 19.9584 54.4388C19.8704 54.2922 19.7829 54.1451 19.6954 53.9985C18.9709 54.0256 18.6969 53.5875 18.435 53.1367C18.3767 53.0388 18.3179 52.9415 18.2595 52.8436C17.7171 52.9598 17.6038 52.6163 17.4475 52.3181C17.3303 52.1229 17.2131 51.9271 17.096 51.7313C16.3268 51.2877 15.5456 50.8535 15.4983 49.8751C15.2953 49.6621 15.0923 49.4486 14.8899 49.2357C14.4816 49.2224 14.2467 49.0205 14.0833 48.7368C13.2433 47.2755 12.3982 45.8175 11.5636 44.3534C11.4134 44.0896 11.304 43.8014 11.7578 43.3661C12.3306 44.5663 13.2713 45.4331 13.997 46.4419C14.3804 46.9746 15.1754 47.2981 15.0422 48.1494C15.3465 48.2843 15.5258 48.5188 15.659 48.7893C16.0611 48.7545 16.3984 48.7766 16.2064 49.2683C16.3819 49.4315 16.5568 49.5941 16.7318 49.7573C17.1158 49.7965 17.2258 49.9979 17.085 50.348L17.2539 50.635C17.9113 50.4 18.188 50.5725 18.0741 51.1649C18.1302 51.2606 18.1864 51.3563 18.2419 51.452C18.5357 51.317 18.8526 51.2617 18.9769 51.4896C19.2773 52.0405 19.9535 52.2103 20.415 52.593C20.5333 52.7855 20.6516 52.978 20.7704 53.1699C21.199 52.968 21.3998 53.2042 21.6485 53.363C23.4662 54.525 25.5226 55.3707 27.6242 56.1656C28.516 56.503 29.6042 56.5583 30.2908 57.1943C30.4234 57.3995 30.6423 57.4681 30.9416 57.4062C31.3179 57.212 31.5969 57.248 31.774 57.5246C31.8978 57.5826 32.021 57.6413 32.1448 57.6993C33.0102 57.5046 33.7595 57.5893 34.3713 58.0035C34.6882 57.9516 34.9682 57.9881 35.2113 58.1147C36.2946 57.9482 37.2728 58.0782 38.1965 58.362C38.2597 58.3271 38.3236 58.2928 38.3879 58.2596C38.8594 57.9787 39.3364 58.0937 39.6929 58.1628C40.6325 58.3448 41.8407 57.7336 42.5988 58.3874C43.2271 58.2917 43.8548 58.1971 44.4831 58.1014C44.6547 58.0472 44.8274 57.9681 44.9969 57.9433C47.2767 57.6042 49.5521 57.326 51.8419 56.6954C52.4025 56.5411 53.0071 56.1595 53.5617 56.4095C53.7553 56.3011 53.949 56.1932 54.1426 56.0848C54.7291 55.7541 55.343 55.7668 55.9444 55.6235C56.0742 55.5505 56.2029 55.4775 56.3322 55.4039C56.7668 55.1395 57.2053 54.8376 57.5607 55.2657C57.9442 55.045 58.3271 54.8248 58.71 54.6047C59.5434 53.999 60.4743 53.7324 61.4217 53.5295C61.4437 53.5245 61.4668 53.5632 61.4893 53.582C62.8917 52.7407 64.3859 52.0405 65.649 50.9863C66.9364 50.0443 68.221 49.0991 69.5155 48.1665C69.6107 48.0979 69.7807 48.1206 69.916 48.1012C70.0414 48.0282 70.1663 47.9552 70.2912 47.8828C70.7132 46.9635 71.4064 46.224 72.3856 45.6759C72.5738 45.5653 72.7619 45.4541 72.9501 45.3434C72.8962 44.7815 73.0959 44.3523 73.8672 44.2206C74.2914 43.9712 74.3288 43.4413 74.8371 43.2527C74.6545 42.8108 74.9945 42.3899 75.3042 42.0303C76.4045 40.7527 77.1065 39.3533 77.9152 37.9777C78.407 37.1409 78.4235 36.1596 79.383 35.4622C79.4193 35.3748 79.4551 35.2874 79.4914 35.2C79.2675 34.9234 79.3825 34.596 79.5183 34.2481C80.354 32.102 80.6665 29.9742 80.9377 27.8398C81.0863 26.6705 80.7732 25.5328 81.4774 24.3176C81.4241 24.2169 81.3713 24.1163 81.3184 24.0151C81.176 23.7827 81.1848 23.4973 81.2854 23.2269C81.6683 22.202 81.5242 21.2252 81.7371 20.2235C82.1365 18.3418 82.7615 16.4801 84.2315 14.7754C84.7475 14.5862 84.687 13.9911 85.1948 13.7969C85.0589 13.5491 84.923 13.3025 84.7872 13.0552L84.7833 13.0547C83.8695 13.0707 83.025 12.9562 82.3775 12.4728C82.2207 12.4949 82.0639 12.5165 81.9071 12.5381C81.582 12.7366 81.2975 12.6454 80.9983 12.6271C79.1299 12.5154 77.3243 12.8688 75.5287 14.032C74.4344 14.7405 73.9778 15.766 73.179 16.6145L73.1779 16.6172C73.1113 17.4043 72.6932 18.1244 72.1282 18.8164C72.1551 18.8651 72.1804 18.9143 72.2046 18.9646C72.0445 20.2025 71.8867 21.4409 71.7222 22.6798C71.7018 22.8286 71.6726 23.0128 71.4548 23.0692C71.1808 23.1406 71.0631 22.9265 71.084 22.786C71.2039 21.9735 70.5036 21.348 71.002 20.4569C70.9195 20.3076 70.837 20.1577 70.7544 20.0083C70.7121 17.995 70.8342 15.9712 72.1491 13.9374C73.1993 12.3129 74.5279 10.9711 76.6713 10.611C76.9293 10.4645 77.1868 10.3179 77.4454 10.1713C77.8877 10.0712 78.3344 9.93237 78.7718 9.87927C80.4828 9.6724 82.2009 9.46056 83.628 10.1442L83.6307 10.1448C83.9993 9.93181 84.3118 10.0458 84.6381 10.0778C86.4475 10.2554 88.0209 10.8301 89.5173 11.5364C89.8628 11.6995 90.5054 11.7206 90.2859 12.2117C90.0543 12.7316 89.7792 13.4214 88.888 13.4667C88.5969 13.7018 88.3054 13.9369 88.0143 14.1714C87.6457 15.2439 86.7545 16.1228 86.0718 17.0785L86.0712 17.0802C85.9452 17.578 85.8731 18.0868 85.35 18.4972C85.3758 18.5465 85.4006 18.5963 85.4242 18.6466C85.3929 19.3562 85.2696 20.0653 84.8521 20.7705C84.7371 20.9232 84.7629 21.0554 84.8246 21.182C85.0606 22.1096 84.9505 23.1096 84.6953 24.1058C84.5627 24.6218 85.0435 25.139 84.3245 25.6545C84.3784 25.7524 84.4323 25.8503 84.4868 25.9482C85.0072 26.2513 84.6128 26.649 84.3487 27.0328C84.4163 27.3193 84.484 27.6058 84.5517 27.8923C84.8004 28.5068 84.6474 29.1274 84.1138 29.7547C84.259 29.9565 84.2695 30.2027 84.2397 30.4621C84.3459 31.7425 84.2271 33.0296 83.3986 34.3394C83.3628 34.4268 83.327 34.5142 83.2913 34.6015C83.634 35.0811 83.2324 35.6193 83.0063 36.1171C82.3621 37.5341 82.0843 39.0314 80.9042 40.3367C80.6841 40.5386 80.4635 40.7405 80.2435 40.9429C80.3925 41.3069 80.1692 41.6531 79.9002 41.9872C79.2301 42.8196 78.5512 43.6476 77.8756 44.4778C77.6852 44.5912 77.4949 44.7052 77.304 44.8191C77.2182 45.3982 76.6812 45.7041 76.2042 46.0465C75.62 46.333 75.5044 47.0349 74.836 47.2467C74.6919 47.7063 74.5758 48.1864 73.8523 48.2229C73.7275 48.2965 73.6026 48.3701 73.4777 48.4431C73.5542 48.8391 73.5525 49.1942 72.8659 49.1953C72.3774 49.5415 71.8888 49.8872 71.4009 50.2329C71.3178 50.5405 71.0273 50.7645 70.7797 50.9426C68.3783 52.6699 65.8108 54.1462 63.1998 55.5256Z" fill="#F7F5FB"/>
<path d="M95.79 58.9026C92.814 58.9026 90.5248 58.3846 88.9223 57.3485C87.3198 56.2837 86.5186 54.7295 86.5186 52.6862C86.5186 51.6501 86.862 50.8011 87.5488 50.1392C88.2642 49.4485 89.1798 49.1031 90.2958 49.1031C91.0398 49.1319 91.5549 49.3189 91.8411 49.6643C92.1558 50.0097 92.3132 50.2687 92.3132 50.4414C92.3132 50.4989 92.1845 50.5996 91.9269 50.7435C91.6694 50.8587 91.4118 51.0889 91.1543 51.4343C90.8968 51.7508 90.768 52.2545 90.768 52.9452C90.768 54.2403 91.1686 55.2764 91.9698 56.0534C92.7711 56.8017 94.0445 57.1758 95.79 57.1758C97.0205 57.1758 98.0649 56.9456 98.9234 56.4851C99.8105 55.9959 100.483 55.3771 100.941 54.6288C101.399 53.8518 101.628 53.0603 101.628 52.2545C101.628 51.0457 101.284 50.0528 100.597 49.2758C99.9106 48.4987 99.0092 47.8368 97.8932 47.29C96.8058 46.7144 95.6469 46.1676 94.4165 45.6495C93.186 45.1315 92.0128 44.5415 90.8968 43.8796C89.8094 43.2176 88.908 42.3974 88.1926 41.4189C87.4772 40.4116 87.1052 39.1597 87.0766 37.6631C87.048 35.85 87.4343 34.3822 88.2355 33.2598C89.0368 32.1086 90.1528 31.274 91.5835 30.756C93.0143 30.2092 94.6025 29.9358 96.348 29.9358C97.6357 29.9358 98.8948 30.1228 100.125 30.497C101.384 30.8711 102.414 31.4611 103.216 32.2669C104.046 33.044 104.46 34.08 104.46 35.3751C104.46 36.4112 104.103 37.2746 103.387 37.9653C102.701 38.6273 101.799 38.9582 100.683 38.9582C99.9392 38.9007 99.4098 38.7136 99.0951 38.397C98.8089 38.0517 98.6658 37.7926 98.6658 37.62C98.6658 37.5336 98.8375 37.4329 99.1809 37.3178C99.5243 37.1739 99.8677 36.9436 100.211 36.6271C100.554 36.2817 100.726 35.7781 100.726 35.1161C100.726 34.0225 100.311 33.1879 99.4814 32.6123C98.6515 32.0079 97.6214 31.7057 96.3909 31.7057C94.5309 31.7057 93.1717 32.1518 92.3132 33.044C91.4834 33.9074 91.0685 34.8859 91.0685 35.9795C91.0685 37.0444 91.3546 37.9078 91.9269 38.5697C92.4992 39.2316 93.3577 39.8792 94.5023 40.5123C95.79 41.203 97.092 41.8506 98.4083 42.455C99.7246 43.0306 100.941 43.6781 102.057 44.3976C103.201 45.1171 104.117 46.0237 104.804 47.1173C105.491 48.1821 105.834 49.5636 105.834 51.2616C105.834 52.7294 105.376 54.0388 104.46 55.19C103.573 56.3412 102.372 57.2478 100.855 57.9097C99.3383 58.5716 97.65 58.9026 95.79 58.9026Z" fill="#F7F5FB"/>
<path d="M109.794 58.1687C109.536 58.1687 109.35 58.068 109.236 57.8665C109.121 57.6651 109.064 57.4492 109.064 57.219C109.093 56.7297 109.207 56.4563 109.407 56.3988C109.608 56.3412 109.851 56.3124 110.137 56.3124C111.053 56.3124 111.697 56.1541 112.069 55.8376C112.441 55.4922 112.669 55.0749 112.755 54.5856C112.87 54.0676 112.927 53.5352 112.927 52.9884V35.85C112.927 35.3032 112.87 34.7852 112.755 34.2959C112.669 33.7779 112.441 33.3606 112.069 33.044C111.697 32.6986 111.053 32.5259 110.137 32.5259C109.851 32.5259 109.608 32.4972 109.407 32.4396C109.207 32.382 109.093 32.1086 109.064 31.6194C109.064 31.3891 109.121 31.1733 109.236 30.9718C109.35 30.7704 109.536 30.6696 109.794 30.6696C110.738 30.6984 111.611 30.7272 112.412 30.756C113.213 30.7848 114.043 30.7992 114.901 30.7992H128.379C128.694 30.7992 128.952 30.8711 129.152 31.015C129.381 31.1589 129.495 31.4323 129.495 31.8352L129.624 37.879C129.624 38.1668 129.481 38.3826 129.195 38.5265C128.937 38.6704 128.694 38.7424 128.465 38.7424C128.15 38.7424 127.864 38.6848 127.607 38.5697C127.349 38.4258 127.192 38.2243 127.135 37.9653C126.934 36.6702 126.691 35.6342 126.405 34.8571C126.147 34.0513 125.747 33.4757 125.203 33.1303C124.688 32.7562 123.93 32.5547 122.928 32.5259H117.176V43.491H124.945C125.174 43.5198 125.332 43.6349 125.418 43.8364C125.532 44.0379 125.589 44.2537 125.589 44.4839C125.589 44.6854 125.532 44.8869 125.418 45.0883C125.332 45.261 125.174 45.3473 124.945 45.3473H117.176V53.5064C117.205 53.8805 117.262 54.2978 117.348 54.7583C117.434 55.19 117.677 55.5642 118.078 55.8807C118.507 56.1973 119.208 56.3412 120.181 56.3124H124.13C125.131 56.2837 125.89 56.1254 126.405 55.8376C126.949 55.521 127.378 55.003 127.693 54.2835C128.007 53.564 128.351 52.5711 128.723 51.3048C128.837 51.017 129.023 50.8299 129.281 50.7435C129.567 50.6572 129.867 50.6428 130.182 50.7004C130.411 50.7292 130.64 50.8299 130.869 51.0026C131.126 51.1752 131.241 51.4055 131.212 51.6933L130.354 57.1327C130.268 57.5356 130.125 57.7946 129.925 57.9097C129.753 57.9961 129.481 58.0392 129.109 58.0392H114.944C114.086 58.0392 113.242 58.0392 112.412 58.0392C111.611 58.068 110.738 58.1112 109.794 58.1687Z" fill="#F7F5FB"/>
<path d="M135.279 58.1687C135.022 58.1687 134.836 58.068 134.721 57.8665C134.607 57.6651 134.55 57.4492 134.55 57.219C134.578 56.7297 134.693 56.4563 134.893 56.3988C135.093 56.3412 135.336 56.3124 135.623 56.3124C136.538 56.3124 137.182 56.1541 137.554 55.8376C137.926 55.4922 138.155 55.0749 138.241 54.5856C138.355 54.0676 138.413 53.5352 138.413 52.9884V35.85C138.413 35.3032 138.355 34.7852 138.241 34.2959C138.155 33.7779 137.926 33.3606 137.554 33.044C137.182 32.6986 136.538 32.5259 135.623 32.5259C135.336 32.5259 135.093 32.4972 134.893 32.4396C134.693 32.382 134.578 32.1086 134.55 31.6194C134.55 31.3891 134.607 31.1733 134.721 30.9718C134.836 30.7704 135.022 30.6696 135.279 30.6696C136.224 30.6984 137.096 30.7272 137.898 30.756C138.699 30.7848 139.529 30.7992 140.387 30.7992C142.133 30.7992 143.921 30.756 145.752 30.6696C146.039 30.6696 146.239 30.7704 146.353 30.9718C146.468 31.1733 146.525 31.3891 146.525 31.6194C146.496 32.1086 146.382 32.382 146.182 32.4396C145.981 32.4972 145.738 32.5259 145.452 32.5259C144.565 32.5259 143.921 32.6986 143.52 33.044C143.148 33.3606 142.92 33.7779 142.834 34.2959C142.748 34.7852 142.691 35.3032 142.662 35.85V53.6359C142.691 54.01 142.748 54.413 142.834 54.8447C142.92 55.2764 143.163 55.6361 143.563 55.9239C143.993 56.2117 144.694 56.3412 145.667 56.3124H149.53C150.531 56.2837 151.29 56.1254 151.805 55.8376C152.348 55.521 152.778 55.003 153.092 54.2835C153.407 53.564 153.75 52.5711 154.122 51.3048C154.237 51.017 154.423 50.8299 154.68 50.7435C154.967 50.6572 155.267 50.6428 155.582 50.7004C155.811 50.7292 156.04 50.8299 156.269 51.0026C156.526 51.1752 156.641 51.4055 156.612 51.6933L155.754 57.1327C155.668 57.5356 155.525 57.7946 155.324 57.9097C155.153 57.9961 154.881 58.0392 154.509 58.0392H140.43C139.572 58.0392 138.727 58.0392 137.898 58.0392C137.096 58.068 136.224 58.1112 135.279 58.1687Z" fill="#F7F5FB"/>
<path d="M157.483 58.1687C157.197 58.1687 156.996 58.068 156.882 57.8665C156.767 57.6651 156.71 57.4492 156.71 57.219C156.739 56.7297 156.853 56.4563 157.054 56.3988C157.254 56.3412 157.497 56.3124 157.783 56.3124C158.556 56.3124 159.143 56.1541 159.543 55.8376C159.944 55.521 160.259 55.1037 160.487 54.5856C160.745 54.0676 160.988 53.5352 161.217 52.9884L168.729 35.1161C169.015 34.4254 169.072 33.9074 168.9 33.562C168.729 33.1879 168.443 32.9289 168.042 32.785C167.641 32.6123 167.198 32.4828 166.711 32.3964C166.282 32.3101 165.996 32.2381 165.853 32.1806C165.71 32.0942 165.638 31.8352 165.638 31.4035C165.638 30.9143 165.81 30.6553 166.153 30.6265C166.497 30.5689 166.897 30.5401 167.355 30.5401C168.528 30.5401 169.53 30.6553 170.36 30.8855C171.19 31.1157 171.905 31.5618 172.506 32.2238C173.107 32.8569 173.665 33.821 174.18 35.1161L181.391 52.9884C181.591 53.4776 181.806 53.9813 182.035 54.4993C182.264 55.0173 182.564 55.449 182.936 55.7944C183.337 56.111 183.838 56.2837 184.439 56.3124C184.753 56.3124 184.997 56.3412 185.168 56.3988C185.369 56.4563 185.483 56.7297 185.512 57.219C185.512 57.4492 185.44 57.6651 185.297 57.8665C185.183 58.068 184.997 58.1687 184.739 58.1687C183.823 58.1112 183.022 58.068 182.335 58.0392C181.649 58.0392 180.876 58.0392 180.017 58.0392C178.329 58.0392 176.555 58.0824 174.695 58.1687C174.409 58.1687 174.209 58.068 174.094 57.8665C173.98 57.6651 173.922 57.4492 173.922 57.219C173.951 56.7297 174.065 56.4563 174.266 56.3988C174.466 56.3412 174.709 56.3124 174.995 56.3124C176.398 56.3124 177.156 56.0534 177.27 55.5354C177.413 55.0173 177.285 54.1683 176.884 52.9884L175.425 49.4053H164.823C164.393 50.4989 164.079 51.2904 163.878 51.7796C163.707 52.2689 163.592 52.5855 163.535 52.7294C163.506 52.8732 163.478 52.9596 163.449 52.9884C163.134 53.9669 162.963 54.7008 162.934 55.19C162.934 55.6505 163.163 55.9527 163.621 56.0966C164.107 56.2405 164.909 56.3124 166.025 56.3124C166.339 56.3124 166.583 56.3412 166.754 56.3988C166.955 56.4563 167.069 56.7297 167.098 57.219C167.098 57.4492 167.026 57.6651 166.883 57.8665C166.769 58.068 166.583 58.1687 166.325 58.1687C165.409 58.1112 164.608 58.068 163.921 58.0392C163.263 58.0392 162.505 58.0392 161.646 58.0392C161.074 58.0392 160.588 58.0392 160.187 58.0392C159.815 58.068 159.429 58.0824 159.028 58.0824C158.627 58.1112 158.112 58.1399 157.483 58.1687ZM165.638 47.549H174.652L170.317 36.4544H170.188L165.638 47.549Z" fill="#F7F5FB"/>
<path d="M186.168 58.1687C185.881 58.1687 185.681 58.068 185.567 57.8665C185.452 57.6651 185.395 57.4492 185.395 57.219C185.424 56.7297 185.538 56.4563 185.738 56.3988C185.939 56.3412 186.182 56.3124 186.468 56.3124C187.384 56.3124 188.028 56.1541 188.4 55.8376C188.772 55.4922 189 55.0749 189.086 54.5856C189.201 54.0676 189.258 53.5352 189.258 52.9884V35.85C189.258 35.3032 189.201 34.7852 189.086 34.2959C189 33.7779 188.772 33.3606 188.4 33.044C188.028 32.6986 187.384 32.5259 186.468 32.5259C186.182 32.5259 185.939 32.4972 185.738 32.4396C185.538 32.382 185.424 32.1086 185.395 31.6194C185.395 31.3891 185.452 31.1733 185.567 30.9718C185.681 30.7704 185.881 30.6696 186.168 30.6696C187.083 30.6984 187.942 30.7272 188.743 30.756C189.544 30.7848 190.374 30.7992 191.232 30.7992C192.978 30.7992 194.766 30.756 196.598 30.6696C196.884 30.6696 197.084 30.7704 197.199 30.9718C197.313 31.1733 197.37 31.3891 197.37 31.6194C197.342 32.1086 197.227 32.382 197.027 32.4396C196.855 32.4972 196.612 32.5259 196.297 32.5259C195.41 32.5259 194.766 32.6986 194.366 33.044C193.994 33.3606 193.765 33.7779 193.679 34.2959C193.593 34.7852 193.536 35.3032 193.507 35.85V43.491H206.985V35.85C206.985 35.3032 206.928 34.7852 206.814 34.2959C206.728 33.7779 206.499 33.3606 206.127 33.044C205.755 32.6986 205.111 32.5259 204.195 32.5259C203.909 32.5259 203.652 32.4972 203.423 32.4396C203.222 32.382 203.108 32.1086 203.079 31.6194C203.079 31.3891 203.136 31.1733 203.251 30.9718C203.394 30.7704 203.594 30.6696 203.852 30.6696C205.712 30.756 207.5 30.7992 209.217 30.7992C210.076 30.7992 210.906 30.7848 211.707 30.756C212.537 30.7272 213.409 30.6984 214.325 30.6696C214.583 30.6696 214.769 30.7704 214.883 30.9718C215.026 31.1733 215.098 31.3891 215.098 31.6194C215.069 32.1086 214.955 32.382 214.754 32.4396C214.554 32.4972 214.311 32.5259 214.025 32.5259C213.138 32.5259 212.494 32.6986 212.093 33.044C211.692 33.3606 211.449 33.7779 211.363 34.2959C211.278 34.7852 211.22 35.3032 211.192 35.85V52.9884C211.22 53.5352 211.278 54.0676 211.363 54.5856C211.449 55.0749 211.692 55.4922 212.093 55.8376C212.494 56.1541 213.138 56.3124 214.025 56.3124C214.311 56.3124 214.554 56.3412 214.754 56.3988C214.955 56.4563 215.069 56.7297 215.098 57.219C215.098 57.4492 215.026 57.6651 214.883 57.8665C214.769 58.068 214.583 58.1687 214.325 58.1687C213.409 58.1112 212.537 58.068 211.707 58.0392C210.877 58.0392 210.033 58.0392 209.174 58.0392C207.486 58.0392 205.712 58.0824 203.852 58.1687C203.594 58.1687 203.394 58.068 203.251 57.8665C203.136 57.6651 203.079 57.4492 203.079 57.219C203.108 56.7297 203.222 56.4563 203.423 56.3988C203.652 56.3412 203.909 56.3124 204.195 56.3124C205.111 56.3124 205.755 56.1541 206.127 55.8376C206.499 55.4922 206.728 55.0749 206.814 54.5856C206.928 54.0676 206.985 53.5352 206.985 52.9884V45.3473H193.507V52.9884C193.536 53.5352 193.593 54.0676 193.679 54.5856C193.765 55.0749 193.994 55.4922 194.366 55.8376C194.766 56.1541 195.41 56.3124 196.297 56.3124C196.612 56.3124 196.855 56.3412 197.027 56.3988C197.227 56.4563 197.342 56.7297 197.37 57.219C197.37 57.4492 197.313 57.6651 197.199 57.8665C197.084 58.068 196.884 58.1687 196.598 58.1687C194.766 58.0824 192.992 58.0392 191.275 58.0392C190.417 58.0392 189.573 58.0392 188.743 58.0392C187.942 58.068 187.083 58.1112 186.168 58.1687Z" fill="#F7F5FB"/>
<path d="M93.9157 25.9478C93.8241 25.9478 93.758 25.912 93.7173 25.8404C93.6766 25.7688 93.6562 25.692 93.6562 25.6102C93.6664 25.4362 93.7071 25.339 93.7783 25.3185C93.8496 25.2981 93.936 25.2878 94.0378 25.2878C94.3634 25.2878 94.5923 25.2315 94.7246 25.119C94.8568 24.9962 94.9382 24.8478 94.9687 24.6739C95.0094 24.4897 95.0298 24.3004 95.0298 24.1059V18.0123C95.0298 17.8179 95.0094 17.6337 94.9687 17.4597C94.9382 17.2755 94.8568 17.1272 94.7246 17.0146C94.5923 16.8918 94.3634 16.8304 94.0378 16.8304C93.936 16.8304 93.8496 16.8202 93.7783 16.7997C93.7071 16.7792 93.6664 16.682 93.6562 16.5081C93.6562 16.4262 93.6766 16.3495 93.7173 16.2778C93.758 16.2062 93.8241 16.1704 93.9157 16.1704C94.2413 16.1806 94.5465 16.1909 94.8314 16.2011C95.1264 16.2113 95.4266 16.2164 95.7318 16.2164H100.142C100.254 16.2164 100.346 16.242 100.417 16.2932C100.499 16.3443 100.539 16.4416 100.539 16.5848L100.585 18.7337C100.585 18.836 100.534 18.9128 100.432 18.9639C100.341 19.0151 100.254 19.0407 100.173 19.0407C100.061 19.0407 99.9542 19.0202 99.8524 18.9793C99.7609 18.9281 99.7049 18.8565 99.6846 18.7644C99.6235 18.3039 99.5421 17.9356 99.4404 17.6593C99.3488 17.3727 99.2064 17.1681 99.0131 17.0453C98.8299 16.9123 98.5603 16.8406 98.2042 16.8304H96.5407V20.8212H99.2725C99.3539 20.8314 99.4149 20.8724 99.4556 20.944C99.4963 21.0156 99.5167 21.0924 99.5167 21.1742C99.5167 21.2459 99.4963 21.3175 99.4556 21.3891C99.4149 21.4505 99.3539 21.4812 99.2725 21.4812H96.5407V24.1059C96.5509 24.3004 96.5712 24.4897 96.6017 24.6739C96.6323 24.8478 96.7136 24.9962 96.8459 25.119C96.9884 25.2315 97.2173 25.2878 97.5327 25.2878C97.6344 25.2878 97.7209 25.2981 97.7921 25.3185C97.8633 25.339 97.904 25.4362 97.9142 25.6102C97.9142 25.692 97.8939 25.7688 97.8532 25.8404C97.8125 25.912 97.7413 25.9478 97.6395 25.9478C96.9884 25.9171 96.3575 25.9018 95.7471 25.9018C95.4419 25.9018 95.1417 25.9018 94.8467 25.9018C94.5516 25.912 94.2413 25.9274 93.9157 25.9478Z" fill="#F7F5FB"/>
<path d="M106.497 26.2088C105.683 26.2088 105.002 26.0655 104.452 25.779C103.903 25.4925 103.491 25.1241 103.216 24.6739C102.941 24.2236 102.804 23.7478 102.804 23.2464V18.0123C102.804 17.8179 102.784 17.6337 102.743 17.4597C102.712 17.2755 102.631 17.1272 102.499 17.0146C102.366 16.8918 102.137 16.8304 101.812 16.8304C101.71 16.8304 101.624 16.8202 101.552 16.7997C101.481 16.7792 101.441 16.682 101.43 16.5081C101.43 16.4262 101.451 16.3495 101.491 16.2778C101.532 16.2062 101.603 16.1704 101.705 16.1704C102.031 16.1806 102.336 16.1909 102.621 16.2011C102.906 16.2113 103.201 16.2164 103.506 16.2164C104.127 16.2164 104.762 16.2011 105.414 16.1704C105.515 16.1704 105.587 16.2062 105.627 16.2778C105.668 16.3495 105.688 16.4262 105.688 16.5081C105.678 16.6616 105.648 16.7537 105.597 16.7844C105.546 16.8151 105.475 16.8304 105.383 16.8304C105.037 16.8304 104.788 16.8867 104.635 16.9992C104.493 17.1016 104.406 17.2448 104.376 17.429C104.345 17.603 104.325 17.7974 104.315 18.0123V22.8013C104.315 23.0673 104.34 23.3487 104.391 23.6455C104.452 23.932 104.564 24.2031 104.727 24.459C104.89 24.7046 105.129 24.9092 105.444 25.0729C105.77 25.2264 106.202 25.3032 106.741 25.3032C107.433 25.3032 107.962 25.1906 108.329 24.9655C108.705 24.7301 108.964 24.4385 109.107 24.0906C109.249 23.7427 109.321 23.3845 109.321 23.0161V18.9793C109.321 18.3039 109.295 17.8179 109.244 17.5211C109.193 17.2141 109.081 17.0248 108.908 16.9532C108.746 16.8713 108.491 16.8304 108.145 16.8304C108.044 16.8304 107.957 16.8202 107.886 16.7997C107.815 16.7792 107.774 16.682 107.764 16.5081C107.764 16.4262 107.784 16.3495 107.825 16.2778C107.866 16.2062 107.937 16.1704 108.039 16.1704C108.364 16.1806 108.654 16.1909 108.908 16.2011C109.163 16.2113 109.443 16.2164 109.748 16.2164C110.053 16.2164 110.333 16.2113 110.587 16.2011C110.842 16.1909 111.132 16.1806 111.457 16.1704C111.559 16.1704 111.63 16.2062 111.671 16.2778C111.712 16.3495 111.732 16.4262 111.732 16.5081C111.722 16.6616 111.691 16.7537 111.64 16.7844C111.589 16.8151 111.518 16.8304 111.427 16.8304C111.152 16.8304 110.928 16.8458 110.755 16.8765C110.592 16.9072 110.465 16.989 110.374 17.122C110.292 17.2448 110.236 17.4495 110.206 17.736C110.185 18.0123 110.175 18.396 110.175 18.8872V23.1696C110.175 23.712 110.058 24.1776 109.824 24.5664C109.6 24.9553 109.3 25.2725 108.924 25.5181C108.557 25.7534 108.161 25.9274 107.733 26.0399C107.306 26.1525 106.894 26.2088 106.497 26.2088Z" fill="#F7F5FB"/>
<path d="M112.621 25.9478C112.519 25.9478 112.448 25.912 112.407 25.8404C112.366 25.7688 112.346 25.692 112.346 25.6102C112.356 25.4362 112.397 25.339 112.468 25.3185C112.539 25.2981 112.626 25.2878 112.728 25.2878C113.053 25.2878 113.277 25.2315 113.399 25.119C113.531 24.9962 113.613 24.8478 113.643 24.6739C113.674 24.4897 113.689 24.3004 113.689 24.1059L113.72 18.0123C113.72 17.5314 113.638 17.2244 113.475 17.0913C113.313 16.9583 113.053 16.856 112.697 16.7844C112.544 16.7537 112.443 16.7281 112.392 16.7076C112.341 16.6769 112.316 16.5848 112.316 16.4313C112.316 16.2574 112.377 16.1653 112.499 16.155C112.621 16.1346 112.763 16.1243 112.926 16.1243C113.496 16.1243 113.954 16.1704 114.3 16.2625C114.656 16.3546 114.966 16.5183 115.23 16.7537C115.505 16.989 115.8 17.3216 116.116 17.7514L120.297 23.2771H120.343L120.313 18.0123C120.313 17.8179 120.297 17.6337 120.267 17.4597C120.236 17.2755 120.155 17.1272 120.023 17.0146C119.9 16.8918 119.677 16.8304 119.351 16.8304C119.249 16.8304 119.163 16.8202 119.092 16.7997C119.02 16.7792 118.975 16.682 118.954 16.5081C118.954 16.4262 118.975 16.3495 119.015 16.2778C119.066 16.2062 119.137 16.1704 119.229 16.1704C119.453 16.1806 119.631 16.1909 119.763 16.2011C119.906 16.2011 120.043 16.2062 120.175 16.2164C120.318 16.2164 120.491 16.2164 120.694 16.2164C120.898 16.2164 121.065 16.2164 121.198 16.2164C121.33 16.2062 121.462 16.2011 121.595 16.2011C121.737 16.1909 121.915 16.1806 122.129 16.1704C122.23 16.1704 122.302 16.2062 122.342 16.2778C122.383 16.3495 122.403 16.4262 122.403 16.5081C122.393 16.682 122.353 16.7792 122.281 16.7997C122.22 16.8202 122.134 16.8304 122.022 16.8304C121.706 16.8304 121.483 16.8918 121.35 17.0146C121.218 17.1272 121.137 17.2755 121.106 17.4597C121.086 17.6337 121.071 17.8179 121.06 18.0123L121.03 25.7483C121.02 25.8302 120.969 25.8813 120.877 25.9018C120.796 25.9325 120.72 25.9478 120.648 25.9478C120.455 25.9478 120.307 25.8813 120.206 25.7483L114.452 18.0123H114.406L114.437 24.1059C114.447 24.3004 114.462 24.4897 114.483 24.6739C114.513 24.8478 114.595 24.9962 114.727 25.119C114.859 25.2315 115.083 25.2878 115.398 25.2878C115.51 25.2878 115.602 25.2981 115.673 25.3185C115.744 25.339 115.785 25.4362 115.795 25.6102C115.795 25.692 115.77 25.7688 115.719 25.8404C115.678 25.912 115.612 25.9478 115.52 25.9478C115.307 25.9376 115.124 25.9274 114.971 25.9171C114.829 25.9171 114.686 25.912 114.544 25.9018C114.411 25.9018 114.244 25.9018 114.04 25.9018C113.837 25.9018 113.669 25.9018 113.536 25.9018C113.414 25.912 113.287 25.9171 113.155 25.9171C113.023 25.9274 112.845 25.9376 112.621 25.9478Z" fill="#F7F5FB"/>
<path d="M123.843 25.9478C123.751 25.9478 123.685 25.912 123.644 25.8404C123.604 25.7688 123.583 25.692 123.583 25.6102C123.593 25.4362 123.634 25.339 123.705 25.3185C123.776 25.2981 123.863 25.2878 123.965 25.2878C124.29 25.2878 124.519 25.2315 124.651 25.119C124.784 24.9962 124.865 24.8478 124.896 24.6739C124.936 24.4897 124.957 24.3004 124.957 24.1059V18.0123C124.957 17.8179 124.936 17.6337 124.896 17.4597C124.865 17.2755 124.784 17.1272 124.651 17.0146C124.519 16.8918 124.29 16.8304 123.965 16.8304C123.863 16.8304 123.776 16.8202 123.705 16.7997C123.634 16.7792 123.593 16.682 123.583 16.5081C123.583 16.4262 123.604 16.3495 123.644 16.2778C123.685 16.2062 123.751 16.1704 123.843 16.1704C124.178 16.1806 124.489 16.1909 124.774 16.2011C125.058 16.2113 125.354 16.2164 125.659 16.2164H128.04C129.016 16.2164 129.901 16.4109 130.695 16.7997C131.489 17.1886 132.119 17.7462 132.587 18.4728C133.056 19.1993 133.29 20.0793 133.29 21.1128C133.29 21.9315 133.132 22.6426 132.816 23.2464C132.501 23.8501 132.079 24.3515 131.55 24.7506C131.021 25.1395 130.425 25.4311 129.764 25.6255C129.113 25.8097 128.447 25.9018 127.765 25.9018H125.659C125.354 25.9018 125.058 25.9018 124.774 25.9018C124.489 25.912 124.178 25.9274 123.843 25.9478ZM127.994 25.3339C128.818 25.3339 129.484 25.1599 129.993 24.812C130.502 24.4539 130.868 23.9576 131.092 23.3231C131.326 22.6887 131.443 21.9519 131.443 21.1128C131.443 20.2737 131.295 19.5268 131 18.8719C130.705 18.217 130.273 17.7053 129.703 17.3369C129.143 16.9583 128.462 16.769 127.658 16.769C127.495 16.769 127.282 16.7741 127.017 16.7844C126.752 16.7844 126.569 16.7844 126.468 16.7844V24.2901C126.468 24.6994 126.59 24.9757 126.834 25.119C127.088 25.2622 127.475 25.3339 127.994 25.3339Z" fill="#F7F5FB"/>
<path d="M133.585 25.9478C133.484 25.9478 133.412 25.912 133.372 25.8404C133.331 25.7688 133.311 25.692 133.311 25.6102C133.321 25.4362 133.361 25.339 133.433 25.3185C133.504 25.2981 133.59 25.2878 133.692 25.2878C133.967 25.2878 134.175 25.2315 134.318 25.119C134.46 25.0064 134.572 24.858 134.654 24.6739C134.745 24.4897 134.832 24.3004 134.913 24.1059L137.584 17.7514C137.686 17.5058 137.706 17.3216 137.645 17.1988C137.584 17.0658 137.482 16.9737 137.34 16.9225C137.197 16.8611 137.04 16.8151 136.867 16.7844C136.714 16.7537 136.612 16.7281 136.561 16.7076C136.51 16.6769 136.485 16.5848 136.485 16.4313C136.485 16.2574 136.546 16.1653 136.668 16.155C136.79 16.1346 136.933 16.1243 137.095 16.1243C137.513 16.1243 137.869 16.1653 138.164 16.2471C138.459 16.329 138.713 16.4876 138.927 16.723C139.141 16.9481 139.339 17.2909 139.522 17.7514L142.086 24.1059C142.157 24.2799 142.234 24.459 142.315 24.6432C142.396 24.8273 142.503 24.9808 142.635 25.1036C142.778 25.2162 142.956 25.2776 143.17 25.2878C143.281 25.2878 143.368 25.2981 143.429 25.3185C143.5 25.339 143.541 25.4362 143.551 25.6102C143.551 25.692 143.526 25.7688 143.475 25.8404C143.434 25.912 143.368 25.9478 143.276 25.9478C142.951 25.9274 142.666 25.912 142.422 25.9018C142.178 25.9018 141.903 25.9018 141.598 25.9018C140.997 25.9018 140.367 25.9171 139.705 25.9478C139.603 25.9478 139.532 25.912 139.492 25.8404C139.451 25.7688 139.43 25.692 139.43 25.6102C139.441 25.4362 139.481 25.339 139.553 25.3185C139.624 25.2981 139.71 25.2878 139.812 25.2878C140.311 25.2878 140.58 25.1957 140.621 25.0115C140.672 24.8273 140.626 24.5255 140.484 24.1059L139.965 22.832H136.195C136.042 23.2208 135.931 23.5022 135.859 23.6762C135.798 23.8501 135.758 23.9627 135.737 24.0138C135.727 24.065 135.717 24.0957 135.707 24.1059C135.595 24.4539 135.534 24.7148 135.524 24.8887C135.524 25.0525 135.605 25.1599 135.768 25.2111C135.941 25.2622 136.226 25.2878 136.622 25.2878C136.734 25.2878 136.821 25.2981 136.882 25.3185C136.953 25.339 136.994 25.4362 137.004 25.6102C137.004 25.692 136.978 25.7688 136.928 25.8404C136.887 25.912 136.821 25.9478 136.729 25.9478C136.404 25.9274 136.119 25.912 135.875 25.9018C135.641 25.9018 135.371 25.9018 135.066 25.9018C134.862 25.9018 134.689 25.9018 134.547 25.9018C134.415 25.912 134.277 25.9171 134.135 25.9171C133.992 25.9274 133.809 25.9376 133.585 25.9478ZM136.485 22.1719H139.69L138.149 18.2272H138.103L136.485 22.1719Z" fill="#F7F5FB"/>
<path d="M148.66 26.2088C147.805 26.2088 147.022 26.0041 146.31 25.5948C145.597 25.1855 145.022 24.6022 144.585 23.845C144.158 23.0878 143.944 22.1822 143.944 21.1282C143.944 20.0844 144.147 19.1737 144.554 18.396C144.961 17.6081 145.536 16.9992 146.279 16.5695C147.032 16.1295 147.917 15.9095 148.934 15.9095C149.301 15.9095 149.677 15.9453 150.064 16.0169C150.461 16.0885 150.827 16.2113 151.163 16.3853C151.498 16.549 151.768 16.769 151.972 17.0453C152.185 17.3216 152.292 17.6644 152.292 18.0737C152.302 18.5137 152.17 18.9026 151.895 19.2402C151.621 19.5677 151.234 19.7314 150.735 19.7314C150.43 19.7314 150.211 19.6598 150.079 19.5165C149.957 19.363 149.901 19.2505 149.911 19.1788C149.911 19.1481 149.972 19.097 150.094 19.0253C150.227 18.9435 150.354 18.8258 150.476 18.6723C150.608 18.5086 150.674 18.2937 150.674 18.0276C150.674 17.5672 150.522 17.2039 150.216 16.9379C149.911 16.6616 149.479 16.5234 148.919 16.5234C148.309 16.5234 147.759 16.6974 147.271 17.0453C146.793 17.3932 146.416 17.9049 146.142 18.5802C145.867 19.2454 145.73 20.064 145.73 21.0361C145.73 21.8547 145.872 22.6017 146.157 23.2771C146.452 23.9422 146.859 24.4743 147.378 24.8734C147.907 25.2622 148.517 25.4567 149.209 25.4567C149.759 25.4567 150.227 25.3441 150.613 25.119C151.01 24.8836 151.366 24.5101 151.682 23.9985C151.773 23.8245 151.936 23.8092 152.17 23.9524C152.262 24.0138 152.333 24.0906 152.384 24.1827C152.434 24.2645 152.424 24.3515 152.353 24.4436C151.966 24.9348 151.6 25.3083 151.254 25.5641C150.908 25.8097 150.532 25.9785 150.125 26.0706C149.718 26.1627 149.23 26.2088 148.66 26.2088Z" fill="#F7F5FB"/>
<path d="M153.784 25.9478C153.683 25.9478 153.611 25.912 153.571 25.8404C153.53 25.7688 153.51 25.692 153.51 25.6102C153.52 25.4362 153.561 25.339 153.632 25.3185C153.703 25.2981 153.79 25.2878 153.891 25.2878C154.217 25.2878 154.446 25.2315 154.578 25.119C154.71 24.9962 154.792 24.8478 154.822 24.6739C154.863 24.4897 154.888 24.3004 154.899 24.1059V18.0123C154.888 17.8179 154.863 17.6337 154.822 17.4597C154.792 17.2755 154.71 17.1272 154.578 17.0146C154.446 16.8918 154.217 16.8304 153.891 16.8304C153.79 16.8304 153.703 16.8202 153.632 16.7997C153.561 16.7792 153.52 16.682 153.51 16.5081C153.51 16.4262 153.53 16.3495 153.571 16.2778C153.611 16.2062 153.683 16.1704 153.784 16.1704C154.11 16.1806 154.415 16.1909 154.7 16.2011C154.995 16.2113 155.295 16.2164 155.601 16.2164C156.221 16.2164 156.857 16.2011 157.508 16.1704C157.6 16.1704 157.666 16.2062 157.707 16.2778C157.758 16.3495 157.783 16.4262 157.783 16.5081C157.773 16.682 157.732 16.7792 157.661 16.7997C157.59 16.8202 157.498 16.8304 157.386 16.8304C157.071 16.8304 156.842 16.8918 156.699 17.0146C156.567 17.1272 156.486 17.2755 156.455 17.4597C156.425 17.6337 156.404 17.8179 156.394 18.0123V24.1059C156.404 24.3004 156.425 24.4897 156.455 24.6739C156.486 24.8478 156.567 24.9962 156.699 25.119C156.842 25.2315 157.071 25.2878 157.386 25.2878C157.498 25.2878 157.59 25.2981 157.661 25.3185C157.732 25.339 157.773 25.4362 157.783 25.6102C157.783 25.692 157.758 25.7688 157.707 25.8404C157.666 25.912 157.6 25.9478 157.508 25.9478C156.857 25.9171 156.226 25.9018 155.616 25.9018C155.311 25.9018 155.01 25.9018 154.715 25.9018C154.42 25.912 154.11 25.9274 153.784 25.9478Z" fill="#F7F5FB"/>
<path d="M163.775 26.2088C163.032 26.2088 162.361 26.0706 161.761 25.7943C161.16 25.5181 160.647 25.1446 160.219 24.6739C159.792 24.2031 159.466 23.671 159.242 23.0775C159.019 22.4738 158.907 21.8445 158.907 21.1896C158.907 20.3403 159.049 19.5882 159.334 18.9332C159.629 18.2783 160.016 17.7258 160.494 17.2755C160.972 16.8253 161.496 16.4876 162.066 16.2625C162.646 16.0271 163.216 15.9095 163.775 15.9095C164.538 15.9095 165.22 16.0476 165.82 16.3239C166.431 16.6002 166.95 16.9737 167.377 17.4444C167.804 17.9151 168.13 18.4523 168.354 19.056C168.577 19.6495 168.689 20.2686 168.689 20.9133C168.689 21.7626 168.542 22.5147 168.247 23.1696C167.952 23.8245 167.56 24.3771 167.072 24.8273C166.583 25.2776 166.049 25.6204 165.469 25.8557C164.899 26.0911 164.335 26.2088 163.775 26.2088ZM163.76 25.5334C164.482 25.5334 165.072 25.3185 165.53 24.8887C165.988 24.459 166.324 23.8962 166.537 23.2003C166.761 22.4943 166.873 21.7319 166.873 20.9133C166.873 20.1458 166.756 19.4347 166.522 18.7798C166.298 18.1146 165.958 17.5825 165.5 17.1834C165.042 16.7741 164.462 16.5695 163.76 16.5695C163.048 16.5695 162.463 16.7844 162.005 17.2141C161.557 17.6337 161.226 18.1914 161.013 18.8872C160.799 19.5728 160.692 20.3249 160.692 21.1435C160.692 21.911 160.799 22.6324 161.013 23.3078C161.237 23.9729 161.577 24.5101 162.035 24.9194C162.493 25.3288 163.068 25.5334 163.76 25.5334ZM163.79 15.2801C163.689 15.3313 163.587 15.3313 163.485 15.2801C163.394 15.2187 163.327 15.1369 163.287 15.0345C163.256 14.922 163.277 14.8299 163.348 14.7583C163.46 14.6457 163.607 14.4973 163.79 14.3131C163.974 14.1289 164.167 13.9396 164.37 13.7452C164.584 13.5508 164.782 13.3819 164.966 13.2387C165.108 13.1261 165.235 13.0391 165.347 12.9778C165.469 12.9061 165.586 12.8703 165.698 12.8703C165.851 12.8703 165.983 12.9419 166.095 13.0852C166.268 13.2796 166.298 13.4689 166.186 13.6531C166.085 13.8271 165.917 13.9908 165.683 14.1443C165.367 14.3489 165.047 14.5485 164.721 14.7429C164.406 14.9373 164.096 15.1164 163.79 15.2801Z" fill="#F7F5FB"/>
<path d="M170.179 25.9478C170.078 25.9478 170.006 25.912 169.966 25.8404C169.925 25.7688 169.905 25.692 169.905 25.6102C169.915 25.4362 169.956 25.339 170.027 25.3185C170.098 25.2981 170.184 25.2878 170.286 25.2878C170.612 25.2878 170.836 25.2315 170.958 25.119C171.09 24.9962 171.171 24.8478 171.202 24.6739C171.232 24.4897 171.248 24.3004 171.248 24.1059L171.278 18.0123C171.278 17.5314 171.197 17.2244 171.034 17.0913C170.871 16.9583 170.612 16.856 170.256 16.7844C170.103 16.7537 170.001 16.7281 169.95 16.7076C169.9 16.6769 169.874 16.5848 169.874 16.4313C169.874 16.2574 169.935 16.1653 170.057 16.155C170.179 16.1346 170.322 16.1243 170.485 16.1243C171.054 16.1243 171.512 16.1704 171.858 16.2625C172.214 16.3546 172.525 16.5183 172.789 16.7537C173.064 16.989 173.359 17.3216 173.674 17.7514L177.856 23.2771H177.902L177.871 18.0123C177.871 17.8179 177.856 17.6337 177.825 17.4597C177.795 17.2755 177.714 17.1272 177.581 17.0146C177.459 16.8918 177.235 16.8304 176.91 16.8304C176.808 16.8304 176.722 16.8202 176.65 16.7997C176.579 16.7792 176.533 16.682 176.513 16.5081C176.513 16.4262 176.533 16.3495 176.574 16.2778C176.625 16.2062 176.696 16.1704 176.788 16.1704C177.011 16.1806 177.19 16.1909 177.322 16.2011C177.464 16.2011 177.602 16.2062 177.734 16.2164C177.876 16.2164 178.049 16.2164 178.253 16.2164C178.456 16.2164 178.624 16.2164 178.756 16.2164C178.889 16.2062 179.021 16.2011 179.153 16.2011C179.296 16.1909 179.474 16.1806 179.687 16.1704C179.789 16.1704 179.86 16.2062 179.901 16.2778C179.942 16.3495 179.962 16.4262 179.962 16.5081C179.952 16.682 179.911 16.7792 179.84 16.7997C179.779 16.8202 179.692 16.8304 179.58 16.8304C179.265 16.8304 179.041 16.8918 178.909 17.0146C178.777 17.1272 178.695 17.2755 178.665 17.4597C178.644 17.6337 178.629 17.8179 178.619 18.0123L178.588 25.7483C178.578 25.8302 178.527 25.8813 178.436 25.9018C178.354 25.9325 178.278 25.9478 178.207 25.9478C178.014 25.9478 177.866 25.8813 177.764 25.7483L172.011 18.0123H171.965L171.996 24.1059C172.006 24.3004 172.021 24.4897 172.041 24.6739C172.072 24.8478 172.153 24.9962 172.285 25.119C172.418 25.2315 172.642 25.2878 172.957 25.2878C173.069 25.2878 173.16 25.2981 173.232 25.3185C173.303 25.339 173.344 25.4362 173.354 25.6102C173.354 25.692 173.328 25.7688 173.277 25.8404C173.237 25.912 173.171 25.9478 173.079 25.9478C172.865 25.9376 172.682 25.9274 172.53 25.9171C172.387 25.9171 172.245 25.912 172.102 25.9018C171.97 25.9018 171.802 25.9018 171.599 25.9018C171.395 25.9018 171.227 25.9018 171.095 25.9018C170.973 25.912 170.846 25.9171 170.714 25.9171C170.581 25.9274 170.403 25.9376 170.179 25.9478Z" fill="#F7F5FB"/>
</svg>
